# xmcd
#
# Track frame offsets: 
#        150
#        20680
#        36170
#        55706
#        77613
#        99242
#        111192
#        129088
#        144598
#        159113
#        172317
#        187340
#        204448
#        215910
#        232250
#        251423
#        266921
#
# Disc length: 3755 seconds
#
# Revision: 2
# Processed by: cddbd v1.5.2PL0 Copyright (c) Steve Scherf et al.
# Submitted via: ExactAudioCopyFreeDBPlugin 1.0
#
DISCID=f60ea911
DTITLE=Diverse - Kölsche Heimat 01 - Ahle Schätzje Neu Lackeet
DYEAR=2015
DGENRE=kölsch
TTITLE0=kasalla - do kanns zaubere
TTITLE1=oebel, philipp - sag ens blotwoosch
TTITLE2=de imis and kebekus, caroline - kölsche jung
TTITLE3=cat ballou - ich han 'nen deckel
TTITLE4=hopstopbanda - an bord
TTITLE5=cüpper, thomas - die höhnerfarm vum zilla
TTITLE6=antiquariat - et ess an einem stöck am rähne
TTITLE7=klüngelköpp - ich bin ein armer kleiner straßensänger
TTITLE8=mica and orchester der liebe - loss mer noch e gläsche schluppe
TTITLE9=metzger, marc - der hirtenknabe von st. kathrein
TTITLE10=bam bam babylon bajasch - do steiht 'ne schutzmann
TTITLE11=domstürmer - de fleech
TTITLE12=wise guys - am aschermittwoch ist alles vorbei
TTITLE13=kätt un fründe - mikado
TTITLE14=heuser, björn - jraaduss
TTITLE15=knittler and weber, jörg p. - ich ben vun köln am rhing ze hus
TTITLE16=alpcologne - heimweh nach köln
EXTD=
EXTT0=
EXTT1=
EXTT2=
EXTT3=
EXTT4=
EXTT5=
EXTT6=
EXTT7=
EXTT8=
EXTT9=
EXTT10=
EXTT11=
EXTT12=
EXTT13=
EXTT14=
EXTT15=
EXTT16=
PLAYORDER=
